# xmcd CD database file
#
# Track frame offsets:
#	150
#	16743
#	41366
#	51163
#	68732
#	98550
#	123559
#	140792
#	158099
#	172169
#	211675
#
# Disc length: 3160 seconds
#
# Revision: 0
# Processed by: cddbd v1.5.2PL0 Copyright (c) Steve Scherf et al.
# Submitted via: CDex 1.51
#
DISCID=900c560b
DTITLE=Clemens Hofer/Trio Boot - Comfort Zone
DYEAR=2015
DGENRE=Jazz
TTITLE0=Clemens Hofer/Trio Boot - Trioboot
TTITLE1=Clemens Hofer/Trio Boot - Falling Grace 
TTITLE2=Clemens Hofer/Trio Boot - Guardian Angel
TTITLE3=Clemens Hofer/Trio Boot - Alone Together
TTITLE4=Clemens Hofer/Trio Boot - Leerlaufen
TTITLE5=Clemens Hofer/Trio Boot - Funny Valentine
TTITLE6=Clemens Hofer/Trio Boot - Peace
TTITLE7=Clemens Hofer/Trio Boot - All this Moments
TTITLE8=Clemens Hofer/Trio Boot - The Fallen Angel
TTITLE9=Clemens Hofer/Trio Boot - Treibholz
TTITLE10=Clemens Hofer/Trio Boot - 10. Oktober (Tafelzirkus)
EXTD=YEAR: 2015
EXTT0=
EXTT1=
EXTT2=
EXTT3=
EXTT4=
EXTT5=
EXTT6=
EXTT7=
EXTT8=
EXTT9=
EXTT10=
PLAYORDER=
